<?xml version="1.0" encoding="UTF-8"?>
<svg version="1.1" xmlns="http://www.w3.org/2000/svg" width="1024" height="768">
<path d="M0 0 C0.91652344 0.4125 1.83304688 0.825 2.77734375 1.25 C17.46692489 8.50207933 28.17115097 21.10554726 33.5 36.5 C37.9676741 51.22677758 36.84702698 66.26379402 30.3125 80.1875 C21.51337412 96.63426121 7.98007338 105.65568545 -9.49609375 111.21850586 C-16.55221814 113.35112966 -23.6698264 115.18274283 -30.8359375 116.90625 C-64.80222216 124.54027406 -64.80222216 124.54027406 -89.5859375 147.578125 C-102.67929203 171.90384966 -103.99142022 200.50081287 -96.16479492 226.6652832 C-91.26886745 242.0272818 -83.37128794 256.04891694 -68.875 263.9375 C-56.18572816 270.00359093 -42.37339775 272.97000591 -28.72540283 276.05352783 C-7.16635222 280.92621299 14.59906779 286.58060487 27.3125 306.25 C35.95627635 321.07528175 38.3615612 337.14892427 34.03125 353.80859375 C29.13730785 368.95386169 19.4645148 380.62470106 6 389 C-8.04711401 396.11929322 -23.67930051 398.80148313 -39 394.3125 C-41.01583056 393.58406938 -43.01776291 392.81542635 -45 392 C-45.88042969 391.649375 -46.76085937 391.29875 -47.66796875 390.9375 C-54.55033341 387.86444415 -59.6922819 383.28002566 -65 378 C-65.56589844 377.46890625 -66.13179687 376.9378125 -66.71484375 376.390625 C-79.38147994 363.35440526 -82.51320754 341.17989392 -86.60546875 324.29931641 C-90.40924987 308.67516088 -94.2011543 294.09328521 -104 281 C-104.53625 280.28328125 -105.0725 279.5665625 -105.625 278.828125 C-117.97904932 264.59890748 -140.47990078 261.62021251 -157.80458069 257.67512512 C-159.82689961 257.21423277 -161.84862564 256.75079663 -163.87036133 256.28735352 C-166.48090972 255.68943141 -169.0934367 255.10807184 -171.7097168 254.53491211 C-189.49779382 250.52751875 -205.29211487 241.86845221 -215.375 226.125 C-223.46998194 211.6090692 -225.25353512 195.13521933 -221.03515625 179.125 C-216.31334899 164.87048752 -207.88387921 153.75475194 -195 146 C-194.27675537 145.55277588 -193.55351074 145.10555176 -192.80834961 144.64477539 C-182.34158454 138.7672033 -170.64889202 136.64783354 -159.0625 133.9375 C-125.59624349 127.0609436 -125.59624349 127.0609436 -99.87011719 106.28759766 C-90.94978888 91.14369212 -87.27000582 73.77662032 -83.59594727 56.77905273 C-79.41410886 37.55478674 -72.98540022 16.76110014 -55.8125 5.3125 C-39.22698868 -4.68455993 -18.10310911 -8.63337543 0 0 Z " fill="#000000" transform="translate(771,188)"/>
<path d="M0 0 C19.04844456 14.99183137 23.28684111 37.26077926 28.54956055 59.52709961 C35.86934554 90.79332704 35.86934554 90.79332704 56.91796875 113.8359375 C70.76102363 121.26866802 86.05702329 124.60977815 101.27230835 128.05224609 C122.32585811 132.81881784 142.80832855 138.19868961 155.97265625 156.78515625 C164.90821956 171.1845035 167.87853839 187.57676978 164.1875 204.2265625 C159.61606247 219.55992587 149.61566517 232.03818324 136.046875 240.359375 C121.7201165 248.07378342 105.78365554 250.70837084 90 246.09765625 C73.46967204 240.04945032 62.55835524 230.96010312 54.57885742 215.19165039 C49.07957699 203.13205861 46.37445215 190.36904743 43.32543945 177.51855469 C36.20208844 146.95322534 36.20208844 146.95322534 16 124 C-7.66881711 110.86194415 -35.32554301 107.7101992 -61.29614258 114.92236328 C-77.020457 119.54860404 -94.22865936 126.70988251 -102.51171875 141.7578125 C-109.19081412 156.30807275 -112.62159839 171.99100425 -115.98388672 187.56835938 C-120.1288116 206.4309983 -126.35467722 227.0805396 -143.3046875 238.16015625 C-149.53578451 241.93254645 -155.87448442 245.28590977 -163 247 C-164.10794922 247.27263672 -164.10794922 247.27263672 -165.23828125 247.55078125 C-181.23774799 250.15324048 -196.3784434 246.72822715 -210 238 C-222.91265337 228.61580424 -232.04918643 214.75339605 -235 199 C-236.11864288 187.8834098 -235.32047044 177.37481388 -231 167 C-230.649375 166.12085938 -230.29875 165.24171875 -229.9375 164.3359375 C-223.1015521 149.00252659 -209.61608103 139.82757385 -194.5005188 133.89144897 C-185.0747733 130.53111785 -175.13380608 128.56545669 -165.40869141 126.27050781 C-145.57430734 121.55508053 -121.93658849 115.9126028 -110.34375 97.34765625 C-102.56439953 82.5629213 -99.33405549 66.3676045 -95.94775391 50.17114258 C-91.78988695 30.40384305 -85.7724304 11.57196297 -68.5546875 -0.75 C-46.63661435 -14.49173865 -21.73967376 -14.11412007 0 0 Z " fill="#000000" transform="translate(548,433)"/>
<path d="M0 0 C19.39787124 14.25974464 23.82519679 37.32643693 29.19775391 59.36181641 C36.81692242 91.23444054 36.81692242 91.23444054 58.375 114.6875 C63.17794667 117.24201611 67.98156273 119.20788998 73.140625 120.921875 C73.91789948 121.18020615 74.69517395 121.43853729 75.4960022 121.70469666 C85.48499972 124.9227743 95.7310479 126.97256366 105.99365234 129.10717773 C125.07686006 133.10469769 144.42314548 138.98961122 156 156 C165.42041057 171.88330015 168.79871058 187.60023437 164.4375 205.8125 C159.68286839 221.66127204 149.79328407 233.27447056 135.53027344 241.40844727 C123.77911794 247.38606532 110.83123239 249.71244303 98.07617188 252.67456055 C66.12359393 259.97440357 66.12359393 259.97440357 42 281 C32.82437025 296.75613189 29.58224293 316.05186283 25.62329102 333.61132812 C21.26923388 352.38974896 14.29168384 370.36804411 -2.25390625 381.3984375 C-17.04842709 390.02682092 -33.66907275 392.71211037 -50.3125 388.5 C-66.81320449 383.03152172 -79.46125974 371.65985232 -87.41015625 356.3671875 C-93.9677667 342.47858749 -94.78578325 327.60268064 -90 313 C-83.42124258 296.11653446 -73.59404797 285.6431285 -56.96875 278.13671875 C-47.54966599 274.05028982 -37.57785588 271.88503993 -27.625 269.5 C6.42496827 261.96240691 6.42496827 261.96240691 32.0078125 239.87109375 C45.68718118 213.84476243 47.38764457 185.163915 38.75 157.3125 C33.11665325 141.38488271 24.92467294 128.27314634 9.46484375 120.76953125 C-2.40270526 115.4642308 -15.0889249 112.62299363 -27.72973633 109.81811523 C-48.64916952 105.16249966 -69.6095374 99.77517831 -82.81640625 81.484375 C-91.28345227 67.98803097 -95.3085243 52.83739607 -91.81982422 37.10473633 C-87.81585321 20.49345912 -79.28084507 7.72510673 -65 -2 C-43.98578209 -13.5726884 -20.23854294 -13.4321282 0 0 Z " fill="#000000" transform="translate(312,194)"/>
<path d="M0 0 C0.91644287 0.00829834 1.83288574 0.01659668 2.77709961 0.02514648 C17.49608748 0.38971551 30.1458652 5.966251 40.9375 16 C55.60688332 31.58769143 59.49575116 52.79716585 64.16162109 72.96459961 C67.81077646 88.65537386 72.30843128 103.7467296 82.6875 116.4375 C83.1721875 117.06914062 83.656875 117.70078125 84.15625 118.3515625 C94.21994066 130.00695934 114.96000441 134.89551862 129.6875 136.4375 C153.74100662 137.63635428 177.87682762 134.17865367 197.6875 119.4375 C198.76 118.695 199.8325 117.9525 200.9375 117.1875 C215.3413058 102.7836942 218.53117097 80.05249979 222.67163086 60.86889648 C226.95093097 41.39172107 233.50861732 21.46016041 250.47265625 9.46875 C265.08781136 0.38001059 280.65341665 -1.81711626 297.50390625 1.09765625 C313.20990247 5.463583 326.13976877 15.59656757 334.6875 29.375 C342.254107 43.71270275 344.55967986 59.81764626 340 75.5625 C339.27348792 77.53770472 338.50515853 79.49825066 337.6875 81.4375 C337.336875 82.31535156 336.98625 83.19320312 336.625 84.09765625 C329.62903281 99.81429087 315.58868052 108.47025639 300.17996216 114.54605103 C290.76118272 117.91475263 280.81742589 119.87295897 271.09619141 122.16699219 C251.5947339 126.8032695 229.89221212 132.02900046 217.75 149.5 C209.51459591 164.17435974 206.42196981 181.03212122 202.6171875 197.25390625 C201.97548561 199.98213291 201.33187678 202.70990402 200.6875 205.4375 C200.51832062 206.1570285 200.34914124 206.87655701 200.17483521 207.6178894 C199.66396423 209.77826626 199.14370779 211.93618735 198.62109375 214.09375 C198.16561157 215.99543945 198.16561157 215.99543945 197.70092773 217.93554688 C193.82534341 231.32783343 183.73718336 244.03214859 171.796875 251.1640625 C162.19550066 256.16170094 153.22974387 259.00213308 142.375 258.875 C141.45928223 258.86742676 140.54356445 258.85985352 139.60009766 258.85205078 C124.80769851 258.49456998 111.54138656 252.76900773 100.75 242.6328125 C92.20340224 233.53586564 86.85644773 222.56999845 83.8125 210.5625 C83.56765869 209.63703369 83.32281738 208.71156738 83.07055664 207.75805664 C81.63020913 202.2657425 80.2708491 196.75460379 78.92578125 191.23828125 C78.62591309 190.01544434 78.32604492 188.79260742 78.01708984 187.53271484 C77.43940763 185.16412291 76.87016686 182.79344961 76.31103516 180.42041016 C72.16028326 163.29762596 65.74465549 144.50483313 50.46484375 134.28125 C36.63075485 126.35967892 20.35006235 123.43193982 4.984375 119.87890625 C-15.15686522 115.22029613 -35.6298096 110.25806863 -48.3125 92.4375 C-57.21701086 77.72737109 -60.83618978 62.90195855 -57.625 45.76953125 C-52.89031416 29.25731438 -42.73190527 15.74186175 -27.875 7.00390625 C-18.86594084 2.26007354 -10.18858821 -0.12026682 0 0 Z " fill="#000000" transform="translate(371.3125,86.5625)"/>
<path d="M0 0 C12.55267412 9.60344084 21.10826509 22.64850682 23.71875 38.38671875 C25.60813338 55.94223935 21.61044076 71.58746817 10.9375 85.6875 C1.83740408 96.25092793 -11.09180508 103.95527265 -25 106 C-43.57864738 107.32937848 -57.94349459 103.57866731 -73.25 92.6875 C-85.86476874 80.35943055 -92.80875038 65.74248821 -93.375 48 C-92.82192806 30.67041244 -86.20774639 15.80503942 -73.72265625 3.8125 C-52.81220171 -14.08169773 -22.69521248 -15.14138247 0 0 Z " fill="#000000" transform="translate(821,336)"/>
<path d="M0 0 C11.50420039 9.55433592 18.05565022 22.11777394 21.16015625 36.60546875 C21.24265625 37.76046875 21.32515625 38.91546875 21.41015625 40.10546875 C21.47332031 40.93949219 21.53648437 41.77351563 21.6015625 42.6328125 C22.24033914 57.98405762 17.1189175 72.74288419 7.72265625 84.85546875 C-2.54138396 95.80014823 -16.88328774 103.6710001 -32.03515625 104.44140625 C-49.8830085 104.78772763 -65.40414134 100.48009464 -78.78515625 88.04296875 C-90.48646045 75.48052961 -96.43536893 59.68832999 -95.93359375 42.5234375 C-94.2893379 26.17430266 -87.81071187 12.36822081 -75.58984375 1.10546875 C-52.96483234 -16.31408891 -23.09448842 -16.8941582 0 0 Z " fill="#000000" transform="translate(274.58984375,337.89453125)"/>
<path d="M0 0 C11.29853151 9.80787068 20.14235766 22.88469682 21.35253906 38.15283203 C22.2859731 55.9048672 19.36396762 70.68750583 7.76171875 84.73828125 C-2.66210943 95.86725075 -15.52551985 103.35133767 -30.94921875 104.1328125 C-47.9448943 104.66968743 -62.19065948 101.75809247 -75.55859375 90.53515625 C-86.40963033 80.20864108 -94.49966709 66.87464475 -95.03515625 51.6015625 C-95.34971474 32.45503982 -91.14756584 17.48491262 -77.5078125 3.265625 C-55.75645626 -16.58050296 -23.34571257 -17.93594745 0 0 Z " fill="#000000" transform="translate(549.83203125,613.17578125)"/>
<path d="M0 0 C12.83284031 9.24239369 22.19408646 22.37073931 24.91796875 38.1015625 C26.56994562 55.85760275 24.12116564 71.39000868 12.8828125 85.69140625 C3.60004897 96.57859804 -9.50866938 105.6195257 -24.08203125 107.1015625 C-42.82962504 108.26507683 -58.31191014 104.95317834 -72.95703125 92.3515625 C-83.61401857 82.1289211 -90.6820025 68.37310651 -91.41796875 53.5234375 C-91.60554146 43.72302262 -90.88774888 35.2756103 -87.08203125 26.1015625 C-86.75460937 25.245625 -86.4271875 24.3896875 -86.08984375 23.5078125 C-80.83215447 11.3805876 -69.67887274 0.91243089 -57.70703125 -4.39453125 C-38.37945311 -12.00907933 -17.8796663 -11.10098172 0 0 Z " fill="#000000" transform="translate(546.08203125,59.8984375)"/>
</svg>
